<?xml version="1.0" encoding="UTF-8" standalone="no"?>
<svg
   xmlns:dc="http://purl.org/dc/elements/1.1/"
   xmlns:cc="http://creativecommons.org/ns#"
   xmlns:rdf="http://www.w3.org/1999/02/22-rdf-syntax-ns#"
   xmlns:svg="http://www.w3.org/2000/svg"
   xmlns="http://www.w3.org/2000/svg"
   id="svg8"
   version="1.1"
   viewBox="0 0 800 300"
   height="300"
   width="800">
  <defs
     id="defs2" />
  <metadata
     id="metadata5">
    <rdf:RDF>
      <cc:Work
         rdf:about="">
        <dc:format>image/svg+xml</dc:format>
        <dc:type
           rdf:resource="http://purl.org/dc/dcmitype/StillImage" />
        <dc:title></dc:title>
      </cc:Work>
    </rdf:RDF>
  </metadata>
  <g
     style="display:inline"
     transform="translate(0,-349.99999)"
     id="layer1">
    <path
       style="display:inline;fill:#80b3ff;stroke-width:0.75727636"
       d="m 147.02359,378.48338 c -29.96054,-0.6205 -60.578293,6.61766 -85.361032,23.92908 -22.60455,15.6469 -41.908059,38.36154 -48.12816,65.64251 -0.993914,9.97122 -1.396048,20.27238 0.590142,30.14018 7.68941,28.79932 30.881419,50.86641 56.403776,64.75601 -4.458125,5.46947 -5.036005,14.04727 -2.152025,20.46125 8.977004,13.55348 26.032857,17.36315 40.835119,20.98271 36.09007,7.53061 73.22535,7.42829 109.92943,7.27019 90.11694,-1.52978 179.89311,-11.5809 268.81158,-25.917 35.52419,-5.69522 71.68729,-6.55441 107.59322,-4.93312 34.81415,2.87996 69.3726,11.95032 99.40535,30.33913 7.51461,3.85434 14.59541,9.65374 23.14029,10.8629 9.4295,-1.0439 13.74055,-11.16724 17.80385,-18.44552 15.43936,-32.2217 28.00991,-65.72604 41.34958,-98.84915 3.94822,-11.47077 9.72715,-22.75892 10.49382,-35.02879 0.38803,-5.50094 -5.78053,-7.55921 -10.21438,-6.17801 -23.00858,5.18499 -45.26345,13.35942 -68.39596,18.12009 -77.46607,17.211 -158.51019,12.15271 -235.39605,-5.43723 -37.89834,-9.57485 -73.79249,-25.7439 -110.20741,-39.79395 -60.68632,-23.68701 -121.86976,-49.14856 -187.10863,-56.77723 -9.76098,-1.02163 -19.58622,-1.17666 -29.39251,-1.14405 z"
       id="path439" />
    <path
       id="path50"
       d="M 220.16868,559.51766 C 128.17787,630.23227 -58.902839,524.5669 41.346798,419.91071 147.79941,308.77896 368.70622,453.95313 479.27989,478.02733 c 286.97985,62.48144 350.15061,-103.33885 284.21839,60.10963 -73.85634,183.09268 0,0 -294.9694,50.10967 -119.20482,20.25063 -439.826326,50.1071 -397.954864,-25.57369"
       style="display:inline;fill:none;fill-opacity:1;stroke:#000000;stroke-width:4;stroke-linecap:butt;stroke-linejoin:miter;stroke-miterlimit:4;stroke-dasharray:none;stroke-dashoffset:0;stroke-opacity:1" />
  </g>
</svg>
